<?xml version="1.0" standalone="no"?>
<!DOCTYPE svg PUBLIC "-//W3C//DTD SVG 20010904//EN"
 "http://www.w3.org/TR/2001/REC-SVG-20010904/DTD/svg10.dtd">
<svg version="1.0" xmlns="http://www.w3.org/2000/svg"
 width="1280.000000pt" height="1280.000000pt" viewBox="0 0 1280.000000 1280.000000"
 preserveAspectRatio="xMidYMid meet">
<metadata>
Created by potrace 1.14, written by Peter Selinger 2001-2017
</metadata>
<g transform="translate(0.000000,1280.000000) scale(0.100000,-0.100000)"
fill="#000000" stroke="none">
<path d="M6109 12796 c-2 -2 -51 -6 -109 -10 -171 -10 -243 -16 -275 -21 -16
-2 -52 -7 -80 -10 -27 -3 -81 -10 -120 -16 -38 -5 -83 -11 -100 -13 -16 -2
-57 -9 -90 -15 -33 -6 -71 -12 -85 -15 -199 -34 -563 -125 -759 -187 -130 -42
-383 -131 -436 -154 -16 -7 -70 -29 -120 -50 -49 -21 -121 -51 -160 -68 -103
-45 -497 -246 -516 -263 -8 -8 -19 -14 -23 -14 -18 0 -469 -283 -531 -333 -5
-4 -68 -51 -140 -105 -361 -270 -701 -584 -975 -901 -30 -35 -68 -78 -83 -95
-15 -17 -47 -56 -70 -86 -23 -30 -47 -59 -53 -65 -37 -34 -364 -496 -364 -515
0 -5 -4 -10 -8 -12 -8 -3 -142 -222 -206 -338 -51 -92 -217 -424 -245 -490
-13 -30 -31 -73 -41 -95 -41 -90 -125 -308 -167 -430 -41 -120 -138 -434 -148
-480 -2 -11 -6 -29 -9 -40 -27 -114 -68 -298 -81 -371 -10 -49 -18 -96 -20
-104 -2 -8 -8 -51 -15 -95 -7 -44 -13 -87 -15 -95 -2 -8 -6 -44 -10 -80 -4
-36 -9 -74 -11 -85 -2 -11 -7 -51 -10 -90 -3 -38 -7 -81 -10 -95 -26 -161 -26
-855 2 -1130 17 -176 20 -201 35 -305 16 -113 17 -120 34 -223 4 -22 20 -112
30 -162 17 -94 81 -355 116 -480 55 -192 179 -557 219 -645 5 -11 30 -69 55
-130 82 -194 232 -499 325 -655 103 -175 149 -249 229 -370 53 -79 101 -151
108 -160 6 -8 62 -82 124 -165 62 -82 115 -152 119 -155 3 -3 28 -32 54 -65
48 -59 123 -146 221 -254 112 -124 351 -356 495 -481 41 -36 77 -67 80 -70 3
-3 39 -32 80 -65 41 -33 77 -62 80 -66 17 -18 297 -221 410 -296 398 -266 879
-513 1295 -668 55 -20 123 -45 150 -55 28 -11 88 -31 135 -45 47 -15 95 -31
107 -35 83 -34 667 -173 773 -185 14 -2 41 -6 60 -10 19 -3 51 -9 70 -11 19
-3 44 -7 55 -8 24 -4 108 -15 150 -20 17 -2 62 -7 100 -11 39 -3 84 -8 101
-10 195 -26 917 -26 1124 -1 14 2 61 7 105 11 44 4 87 8 95 10 8 1 40 6 70 9
30 4 66 8 80 11 14 2 43 6 65 10 22 3 56 8 75 11 35 5 409 81 443 90 9 2 25 6
35 8 56 13 296 82 417 120 550 174 1080 427 1575 751 58 38 110 73 115 77 6 4
73 54 150 109 77 56 162 120 190 143 27 22 57 46 65 53 33 26 160 132 174 145
7 7 53 49 102 93 110 100 328 318 414 415 36 40 70 78 76 84 109 115 342 416
495 641 71 104 289 458 289 469 0 3 13 27 28 53 35 59 115 215 175 343 227
481 401 1024 503 1568 13 70 26 151 30 177 2 17 8 62 13 100 6 39 13 93 16
120 3 28 8 64 10 80 3 17 7 62 10 100 3 39 8 117 12 175 15 206 7 841 -12 961
-2 13 -6 56 -9 94 -4 39 -9 86 -11 105 -2 19 -7 58 -10 85 -4 28 -8 57 -10 65
-2 8 -6 35 -9 60 -3 25 -8 55 -10 66 -2 12 -7 39 -11 60 -44 267 -123 585
-216 874 -39 120 -130 373 -149 415 -5 11 -30 70 -55 130 -82 194 -232 499
-325 655 -103 175 -149 249 -229 370 -53 79 -101 151 -108 160 -6 8 -46 62
-89 120 -69 94 -200 259 -250 316 -11 12 -41 48 -69 79 -155 180 -418 443
-596 597 -30 25 -67 58 -84 73 -16 15 -46 38 -65 53 -19 15 -39 32 -45 38 -5
6 -28 24 -50 40 -22 16 -42 31 -45 35 -30 34 -507 365 -564 391 -14 6 -26 15
-26 20 0 4 -4 8 -10 8 -5 0 -38 17 -72 38 -35 21 -70 42 -78 45 -8 4 -46 25
-85 47 -100 57 -367 192 -455 230 -41 18 -99 43 -128 56 -29 13 -55 24 -57 24
-3 0 -24 9 -48 19 -209 96 -803 280 -1047 324 -14 3 -36 8 -50 11 -29 7 -66
14 -130 26 -82 15 -105 19 -144 25 -21 4 -46 8 -55 10 -9 1 -41 6 -71 10 -30
4 -63 9 -73 11 -10 2 -48 6 -85 10 -36 3 -73 7 -82 9 -8 1 -58 6 -110 10 -52
4 -106 9 -120 11 -31 5 -726 14 -731 10z"/>
</g>
</svg>
